<?xml version="1.0" standalone="no"?>
<!DOCTYPE svg PUBLIC "-//W3C//DTD SVG 20010904//EN"
 "http://www.w3.org/TR/2001/REC-SVG-20010904/DTD/svg10.dtd">
<svg version="1.0" xmlns="http://www.w3.org/2000/svg"
 width="512.000000pt" height="512.000000pt" viewBox="0 0 512.000000 512.000000"
 preserveAspectRatio="xMidYMid meet">
<metadata>
Created by potrace 1.16, written by Peter Selinger 2001-2019
</metadata>
<g transform="translate(0.000000,512.000000) scale(0.100000,-0.100000)"
fill="#000000" stroke="none">
<path d="M3289 4806 c-6 -6 -683 -155 -1069 -236 -760 -158 -1172 -251 -1226
-276 -35 -17 -59 -64 -36 -72 6 -2 8 -10 5 -19 -5 -13 -3 -13 20 2 l26 17 5
-34 c4 -18 15 -100 26 -183 12 -82 28 -195 37 -250 8 -55 16 -136 16 -180 0
-44 2 -68 4 -52 2 15 9 25 14 22 5 -4 9 2 9 13 0 10 10 24 23 29 22 10 24 8
36 -33 7 -24 11 -60 9 -79 -2 -19 -1 -35 3 -35 4 0 10 -30 14 -67 9 -88 93
-589 105 -628 10 -29 10 -29 5 5 -3 19 -24 143 -47 275 -27 163 -41 271 -41
335 0 68 -2 84 -7 55 -4 -22 -8 -31 -9 -20 -1 11 -8 81 -16 155 -8 74 -15 144
-15 155 0 12 -3 16 -8 9 -4 -6 -21 -16 -39 -22 -39 -13 -34 -32 -73 262 -37
283 -37 274 -2 282 58 13 62 15 62 40 0 13 2 24 5 24 3 0 99 21 213 46 416 91
533 116 862 185 485 101 639 134 880 190 252 59 298 60 358 12 52 -42 79 -85
101 -162 22 -75 142 -782 196 -1151 20 -135 62 -416 95 -625 32 -209 84 -551
115 -760 30 -209 72 -480 91 -602 24 -149 34 -236 29 -263 -8 -45 -38 -95 -75
-121 -14 -10 -220 -67 -460 -128 -239 -61 -568 -144 -730 -186 -893 -228
-1013 -257 -1072 -253 -32 2 -61 7 -64 11 -4 4 -29 138 -55 299 -26 161 -66
363 -88 448 -43 169 -64 272 -81 395 -28 201 -55 344 -97 518 -25 104 -47 186
-50 184 -2 -3 8 -51 22 -108 40 -156 73 -325 101 -514 32 -218 37 -245 90
-460 24 -99 66 -309 92 -468 l49 -287 -33 0 c-30 0 -34 4 -44 38 -13 46 -51
278 -49 295 1 6 -1 19 -4 27 -7 19 -51 285 -72 440 -25 185 -48 321 -52 316
-2 -2 3 -53 11 -112 9 -60 25 -176 36 -259 11 -82 32 -213 45 -290 13 -77 34
-200 45 -274 12 -74 26 -144 31 -157 7 -20 5 -24 -9 -24 -9 0 -29 6 -43 14
-25 13 -25 12 -21 -12 5 -26 52 -52 96 -52 14 0 28 -5 32 -11 14 -23 90 -49
143 -49 54 0 345 72 791 195 115 32 745 193 845 216 227 52 601 151 635 169
50 26 92 87 93 137 3 82 -16 246 -33 293 -5 14 -14 68 -20 120 -10 96 -13 117
-25 180 -21 117 -46 268 -50 315 -3 22 -7 54 -9 70 -3 17 -19 122 -36 235 -31
214 -47 312 -61 393 -4 27 -10 73 -13 102 -6 66 -16 125 -23 145 -4 8 -7 29
-8 45 -6 87 -19 165 -27 165 -5 0 -7 8 -4 18 3 9 -3 67 -14 127 -24 132 -89
538 -94 580 -1 17 -5 37 -9 45 -3 8 -6 22 -6 30 -1 15 -7 55 -16 100 -2 14
-11 63 -19 110 -60 348 -68 386 -102 457 -52 109 -137 173 -231 173 -16 0 -32
-2 -34 -4z m-2179 -530 c0 -9 -15 -17 -38 -21 -22 -3 -51 -13 -67 -21 -15 -8
-30 -12 -33 -9 -12 11 28 38 75 51 62 16 63 16 63 0z m63 -627 c5 -34 3 -37
-29 -47 -32 -9 -34 -9 -34 13 0 13 -3 30 -6 39 -4 11 4 17 28 24 18 5 33 9 34
8 1 -1 4 -17 7 -37z"/>
<path d="M3120 4550 c-91 -22 -367 -83 -615 -136 -593 -126 -1277 -282 -1288
-293 -17 -17 -18 -87 -3 -186 13 -87 15 -91 10 -30 -2 39 -7 95 -10 125 -4 38
-1 60 8 72 13 18 482 129 1073 253 354 75 684 147 868 191 154 37 174 37 217
1 l25 -21 -26 27 c-38 41 -75 41 -259 -3z"/>
<path d="M3511 4372 c-1 -12 24 -183 53 -380 30 -196 64 -431 76 -522 24 -193
72 -518 217 -1460 58 -377 108 -710 110 -740 4 -46 1 -61 -19 -89 -42 -63 6
-48 -1073 -331 -595 -156 -949 -251 -954 -256 -2 -2 0 -4 5 -4 11 0 361 90
759 195 160 42 445 117 635 166 550 144 577 152 616 190 62 60 62 77 -16 544
-12 69 -125 820 -201 1325 -28 190 -53 363 -55 385 -6 82 -41 328 -110 760
-36 225 -42 257 -43 217z"/>
<path d="M3436 4310 c18 -123 117 -749 129 -815 12 -71 13 -74 9 -20 -8 87
-113 750 -129 815 -8 30 -12 39 -9 20z"/>
<path d="M2973 4288 c-44 -9 -61 -38 -24 -38 24 0 27 -9 42 -132 10 -87 14
-98 31 -98 16 0 19 5 14 28 -3 15 -11 67 -17 116 -11 90 -10 97 25 109 13 4
-2 27 -17 26 -7 -1 -31 -5 -54 -11z"/>
<path d="M2790 4251 c-14 -4 -25 -11 -25 -16 0 -6 7 -68 14 -138 12 -102 17
-127 29 -122 7 3 16 5 18 5 2 0 1 25 -2 55 -4 30 -4 55 0 55 3 0 20 -22 37
-50 32 -52 36 -55 56 -42 8 5 4 20 -16 52 l-28 45 24 29 c20 24 24 37 19 64
-10 64 -50 84 -126 63z m78 -72 c3 -32 0 -37 -24 -43 -14 -4 -27 -6 -29 -4 -1
2 -5 22 -8 46 l-5 43 31 -3 c29 -3 32 -7 35 -39z"/>
<path d="M2609 4201 c-26 -27 -29 -35 -29 -98 0 -83 27 -149 63 -158 32 -8 83
18 93 47 22 68 -10 203 -54 227 -31 16 -41 14 -73 -18z m70 -35 c20 -24 35
-124 23 -151 -14 -30 -56 -34 -71 -7 -16 31 -23 115 -12 145 11 29 41 36 60
13z"/>
<path d="M1123 4185 c0 -22 2 -30 4 -17 2 12 2 30 0 40 -3 9 -5 -1 -4 -23z"/>
<path d="M2441 4178 c-32 -9 -33 -11 -28 -45 4 -20 12 -80 18 -134 9 -73 16
-99 26 -99 11 0 14 13 12 55 -3 54 -2 56 32 73 47 23 64 62 49 108 -8 22 -21
39 -37 45 -28 10 -27 10 -72 -3z m71 -54 c14 -31 1 -57 -29 -62 -16 -2 -22 4
-27 33 -4 19 -4 40 -1 45 12 19 45 10 57 -16z"/>
<path d="M2285 4143 c-11 -3 -24 -8 -28 -13 -5 -4 2 -64 14 -134 16 -93 26
-126 36 -126 12 0 14 11 8 60 -7 58 -6 60 18 69 46 18 62 85 31 129 -15 21
-36 25 -79 15z m53 -65 c2 -18 -3 -30 -16 -37 -22 -12 -32 2 -32 46 0 20 4 24
23 21 15 -2 23 -11 25 -30z"/>
<path d="M1132 4110 c0 -19 2 -27 5 -17 2 9 2 25 0 35 -3 9 -5 1 -5 -18z"/>
<path d="M2090 4090 c-25 -25 -27 -91 -4 -110 8 -8 36 -19 62 -25 42 -11 47
-15 47 -41 0 -25 -4 -29 -33 -32 -22 -2 -34 2 -38 12 -7 18 -34 22 -34 5 0
-44 52 -74 100 -58 84 30 60 141 -34 156 -44 7 -61 32 -41 59 11 16 18 17 43
8 42 -16 62 -2 38 25 -25 27 -79 28 -106 1z"/>
<path d="M1933 4072 c-6 -4 -16 -59 -22 -127 -6 -66 -14 -130 -16 -142 -4 -17
-1 -20 15 -16 15 4 20 14 20 38 0 34 13 45 51 45 13 0 24 -10 30 -30 11 -31
16 -35 35 -22 9 5 -3 45 -40 134 -28 70 -53 128 -56 128 -3 0 -10 -4 -17 -8z
m30 -165 c-21 -13 -25 -4 -17 39 l7 39 12 -35 c10 -29 10 -36 -2 -43z"/>
<path d="M1143 4020 c0 -25 2 -35 4 -22 2 12 2 32 0 45 -2 12 -4 2 -4 -23z"/>
<path d="M1778 4033 c-21 -5 -22 -20 -7 -151 13 -118 14 -123 34 -116 12 5 14
16 9 54 -6 45 -4 50 27 78 26 23 33 37 33 67 0 56 -39 83 -96 68z m56 -49 c11
-28 6 -54 -10 -61 -20 -7 -34 13 -34 50 0 20 5 27 19 27 10 0 22 -7 25 -16z"/>
<path d="M1648 4013 c-34 -5 -34 -9 -11 -160 15 -95 20 -113 36 -113 13 0 16
6 13 23 -19 91 -19 94 19 116 34 20 40 35 35 86 -1 11 -9 28 -17 38 -16 17
-23 18 -75 10z m57 -52 c8 -25 -3 -48 -25 -54 -20 -5 -30 10 -30 49 0 19 5 24
24 24 15 0 27 -7 31 -19z"/>
<path d="M1152 3950 c0 -14 2 -19 5 -12 2 6 2 18 0 25 -3 6 -5 1 -5 -13z"/>
<path d="M1162 3890 c0 -14 2 -19 5 -12 2 6 2 18 0 25 -3 6 -5 1 -5 -13z"/>
<path d="M1011 3864 c0 -11 3 -14 6 -6 3 7 2 16 -1 19 -3 4 -6 -2 -5 -13z"/>
<path d="M1172 3810 c0 -14 2 -19 5 -12 2 6 2 18 0 25 -3 6 -5 1 -5 -13z"/>
<path d="M1233 3795 c0 -22 2 -30 4 -17 2 12 2 30 0 40 -3 9 -5 -1 -4 -23z"/>
<path d="M1231 3721 c-1 -14 120 -830 144 -970 8 -46 17 -86 20 -90 7 -6 5 6
-30 234 -13 88 -45 297 -70 465 -44 290 -62 392 -64 361z"/>
<path d="M2550 3720 c-23 -8 -22 -8 8 -7 17 1 32 5 32 9 0 9 -6 9 -40 -2z"/>
<path d="M3218 3713 c7 -3 16 -2 19 1 4 3 -2 6 -13 5 -11 0 -14 -3 -6 -6z"/>
<path d="M2460 3695 l-35 -14 40 6 c22 3 44 9 50 14 14 13 -14 10 -55 -6z"/>
<path d="M3178 3703 c7 -3 16 -2 19 1 4 3 -2 6 -13 5 -11 0 -14 -3 -6 -6z"/>
<path d="M2543 3693 c9 -2 23 -2 30 0 6 3 -1 5 -18 5 -16 0 -22 -2 -12 -5z"/>
<path d="M3108 3683 c7 -3 16 -2 19 1 4 3 -2 6 -13 5 -11 0 -14 -3 -6 -6z"/>
<path d="M2360 3670 c-20 -6 -21 -8 -5 -8 11 0 31 4 45 8 20 6 21 8 5 8 -11 0
-31 -4 -45 -8z"/>
<path d="M3045 3670 c-13 -5 -14 -9 -5 -9 8 0 24 4 35 9 13 5 14 9 5 9 -8 0
-24 -4 -35 -9z"/>
<path d="M2998 3653 c7 -3 16 -2 19 1 4 3 -2 6 -13 5 -11 0 -14 -3 -6 -6z"/>
<path d="M2271 3643 c-1 -6 -11 -9 -23 -7 -21 4 -21 4 -3 -4 l20 -9 -20 -5
c-11 -3 -14 -6 -5 -7 23 -1 43 15 37 30 -3 8 -6 9 -6 2z"/>
<path d="M2958 3643 c7 -3 16 -2 19 1 4 3 -2 6 -13 5 -11 0 -14 -3 -6 -6z"/>
<path d="M2918 3633 c7 -3 16 -2 19 1 4 3 -2 6 -13 5 -11 0 -14 -3 -6 -6z"/>
<path d="M2878 3623 c7 -3 16 -2 19 1 4 3 -2 6 -13 5 -11 0 -14 -3 -6 -6z"/>
<path d="M2815 3610 c-13 -5 -14 -9 -5 -9 8 0 24 4 35 9 13 5 14 9 5 9 -8 0
-24 -4 -35 -9z"/>
<path d="M2768 3593 c7 -3 16 -2 19 1 4 3 -2 6 -13 5 -11 0 -14 -3 -6 -6z"/>
<path d="M2728 3583 c7 -3 16 -2 19 1 4 3 -2 6 -13 5 -11 0 -14 -3 -6 -6z"/>
<path d="M2688 3573 c7 -3 16 -2 19 1 4 3 -2 6 -13 5 -11 0 -14 -3 -6 -6z"/>
<path d="M2648 3563 c7 -3 16 -2 19 1 4 3 -2 6 -13 5 -11 0 -14 -3 -6 -6z"/>
<path d="M3218 3563 c7 -3 16 -2 19 1 4 3 -2 6 -13 5 -11 0 -14 -3 -6 -6z"/>
<path d="M3178 3553 c7 -3 16 -2 19 1 4 3 -2 6 -13 5 -11 0 -14 -3 -6 -6z"/>
<path d="M3138 3543 c7 -3 16 -2 19 1 4 3 -2 6 -13 5 -11 0 -14 -3 -6 -6z"/>
<path d="M1121 3514 c0 -11 3 -14 6 -6 3 7 2 16 -1 19 -3 4 -6 -2 -5 -13z"/>
<path d="M2458 3513 c7 -3 16 -2 19 1 4 3 -2 6 -13 5 -11 0 -14 -3 -6 -6z"/>
<path d="M3028 3513 c7 -3 16 -2 19 1 4 3 -2 6 -13 5 -11 0 -14 -3 -6 -6z"/>
<path d="M2418 3503 c7 -3 16 -2 19 1 4 3 -2 6 -13 5 -11 0 -14 -3 -6 -6z"/>
<path d="M2378 3493 c7 -3 16 -2 19 1 4 3 -2 6 -13 5 -11 0 -14 -3 -6 -6z"/>
<path d="M2958 3493 c7 -3 16 -2 19 1 4 3 -2 6 -13 5 -11 0 -14 -3 -6 -6z"/>
<path d="M2338 3483 c7 -3 16 -2 19 1 4 3 -2 6 -13 5 -11 0 -14 -3 -6 -6z"/>
<path d="M2918 3483 c7 -3 16 -2 19 1 4 3 -2 6 -13 5 -11 0 -14 -3 -6 -6z"/>
<path d="M1071 3464 c0 -11 3 -14 6 -6 3 7 2 16 -1 19 -3 4 -6 -2 -5 -13z"/>
<path d="M1134 3464 c3 -9 11 -59 16 -112 27 -259 32 -299 40 -332 12 -53 12
0 0 75 -5 33 -15 116 -20 185 -6 69 -13 134 -15 145 -2 11 -4 28 -4 38 -1 9
-6 17 -12 17 -6 0 -8 -7 -5 -16z"/>
<path d="M2298 3473 c7 -3 16 -2 19 1 4 3 -2 6 -13 5 -11 0 -14 -3 -6 -6z"/>
<path d="M2258 3463 c7 -3 16 -2 19 1 4 3 -2 6 -13 5 -11 0 -14 -3 -6 -6z"/>
<path d="M2218 3453 c7 -3 16 -2 19 1 4 3 -2 6 -13 5 -11 0 -14 -3 -6 -6z"/>
<path d="M2808 3453 c7 -3 16 -2 19 1 4 3 -2 6 -13 5 -11 0 -14 -3 -6 -6z"/>
<path d="M1101 3434 c0 -11 3 -14 6 -6 3 7 2 16 -1 19 -3 4 -6 -2 -5 -13z"/>
<path d="M2178 3443 c7 -3 16 -2 19 1 4 3 -2 6 -13 5 -11 0 -14 -3 -6 -6z"/>
<path d="M2768 3443 c7 -3 16 -2 19 1 4 3 -2 6 -13 5 -11 0 -14 -3 -6 -6z"/>
<path d="M2138 3433 c7 -3 16 -2 19 1 4 3 -2 6 -13 5 -11 0 -14 -3 -6 -6z"/>
<path d="M2728 3433 c7 -3 16 -2 19 1 4 3 -2 6 -13 5 -11 0 -14 -3 -6 -6z"/>
<path d="M2068 3413 c7 -3 16 -2 19 1 4 3 -2 6 -13 5 -11 0 -14 -3 -6 -6z"/>
<path d="M2028 3403 c7 -3 16 -2 19 1 4 3 -2 6 -13 5 -11 0 -14 -3 -6 -6z"/>
<path d="M3178 3403 c7 -3 16 -2 19 1 4 3 -2 6 -13 5 -11 0 -14 -3 -6 -6z"/>
<path d="M3582 3380 c0 -19 2 -27 5 -17 2 9 2 25 0 35 -3 9 -5 1 -5 -18z"/>
<path d="M1081 3384 c0 -11 3 -14 6 -6 3 7 2 16 -1 19 -3 4 -6 -2 -5 -13z"/>
<path d="M1988 3393 c7 -3 16 -2 19 1 4 3 -2 6 -13 5 -11 0 -14 -3 -6 -6z"/>
<path d="M2568 3393 c7 -3 16 -2 19 1 4 3 -2 6 -13 5 -11 0 -14 -3 -6 -6z"/>
<path d="M3138 3393 c7 -3 16 -2 19 1 4 3 -2 6 -13 5 -11 0 -14 -3 -6 -6z"/>
<path d="M2528 3383 c7 -3 16 -2 19 1 4 3 -2 6 -13 5 -11 0 -14 -3 -6 -6z"/>
<path d="M3098 3383 c7 -3 16 -2 19 1 4 3 -2 6 -13 5 -11 0 -14 -3 -6 -6z"/>
<path d="M2488 3373 c7 -3 16 -2 19 1 4 3 -2 6 -13 5 -11 0 -14 -3 -6 -6z"/>
<path d="M3058 3373 c7 -3 16 -2 19 1 4 3 -2 6 -13 5 -11 0 -14 -3 -6 -6z"/>
<path d="M1878 3363 c7 -3 16 -2 19 1 4 3 -2 6 -13 5 -11 0 -14 -3 -6 -6z"/>
<path d="M1838 3353 c7 -3 16 -2 19 1 4 3 -2 6 -13 5 -11 0 -14 -3 -6 -6z"/>
<path d="M2988 3353 c7 -3 16 -2 19 1 4 3 -2 6 -13 5 -11 0 -14 -3 -6 -6z"/>
<path d="M2948 3343 c7 -3 16 -2 19 1 4 3 -2 6 -13 5 -11 0 -14 -3 -6 -6z"/>
<path d="M1758 3333 c7 -3 16 -2 19 1 4 3 -2 6 -13 5 -11 0 -14 -3 -6 -6z"/>
<path d="M2328 3333 c7 -3 16 -2 19 1 4 3 -2 6 -13 5 -11 0 -14 -3 -6 -6z"/>
<path d="M2908 3333 c7 -3 16 -2 19 1 4 3 -2 6 -13 5 -11 0 -14 -3 -6 -6z"/>
<path d="M3591 3324 c0 -11 3 -14 6 -6 3 7 2 16 -1 19 -3 4 -6 -2 -5 -13z"/>
<path d="M1718 3323 c7 -3 16 -2 19 1 4 3 -2 6 -13 5 -11 0 -14 -3 -6 -6z"/>
<path d="M2288 3323 c7 -3 16 -2 19 1 4 3 -2 6 -13 5 -11 0 -14 -3 -6 -6z"/>
<path d="M2868 3323 c7 -3 16 -2 19 1 4 3 -2 6 -13 5 -11 0 -14 -3 -6 -6z"/>
<path d="M2248 3313 c7 -3 16 -2 19 1 4 3 -2 6 -13 5 -11 0 -14 -3 -6 -6z"/>
<path d="M2828 3313 c7 -3 16 -2 19 1 4 3 -2 6 -13 5 -11 0 -14 -3 -6 -6z"/>
<path d="M1638 3303 c7 -3 16 -2 19 1 4 3 -2 6 -13 5 -11 0 -14 -3 -6 -6z"/>
<path d="M2208 3303 c7 -3 16 -2 19 1 4 3 -2 6 -13 5 -11 0 -14 -3 -6 -6z"/>
<path d="M2788 3303 c7 -3 16 -2 19 1 4 3 -2 6 -13 5 -11 0 -14 -3 -6 -6z"/>
<path d="M2168 3293 c7 -3 16 -2 19 1 4 3 -2 6 -13 5 -11 0 -14 -3 -6 -6z"/>
<path d="M2748 3293 c7 -3 16 -2 19 1 4 3 -2 6 -13 5 -11 0 -14 -3 -6 -6z"/>
<path d="M2088 3273 c7 -3 16 -2 19 1 4 3 -2 6 -13 5 -11 0 -14 -3 -6 -6z"/>
<path d="M2048 3263 c7 -3 16 -2 19 1 4 3 -2 6 -13 5 -11 0 -14 -3 -6 -6z"/>
<path d="M2628 3263 c7 -3 16 -2 19 1 4 3 -2 6 -13 5 -11 0 -14 -3 -6 -6z"/>
<path d="M2008 3253 c7 -3 16 -2 19 1 4 3 -2 6 -13 5 -11 0 -14 -3 -6 -6z"/>
<path d="M2558 3243 c7 -3 16 -2 19 1 4 3 -2 6 -13 5 -11 0 -14 -3 -6 -6z"/>
<path d="M2518 3233 c7 -3 16 -2 19 1 4 3 -2 6 -13 5 -11 0 -14 -3 -6 -6z"/>
<path d="M1888 3223 c7 -3 16 -2 19 1 4 3 -2 6 -13 5 -11 0 -14 -3 -6 -6z"/>
<path d="M2428 3213 c6 -2 18 -2 25 0 6 3 1 5 -13 5 -14 0 -19 -2 -12 -5z"/>
<path d="M2388 3203 c7 -3 16 -2 19 1 4 3 -2 6 -13 5 -11 0 -14 -3 -6 -6z"/>
<path d="M2348 3193 c7 -3 16 -2 19 1 4 3 -2 6 -13 5 -11 0 -14 -3 -6 -6z"/>
<path d="M1728 3183 c7 -3 16 -2 19 1 4 3 -2 6 -13 5 -11 0 -14 -3 -6 -6z"/>
<path d="M2308 3183 c7 -3 16 -2 19 1 4 3 -2 6 -13 5 -11 0 -14 -3 -6 -6z"/>
<path d="M1688 3173 c7 -3 16 -2 19 1 4 3 -2 6 -13 5 -11 0 -14 -3 -6 -6z"/>
<path d="M2268 3173 c7 -3 16 -2 19 1 4 3 -2 6 -13 5 -11 0 -14 -3 -6 -6z"/>
<path d="M1648 3163 c7 -3 16 -2 19 1 4 3 -2 6 -13 5 -11 0 -14 -3 -6 -6z"/>
<path d="M2228 3163 c7 -3 16 -2 19 1 4 3 -2 6 -13 5 -11 0 -14 -3 -6 -6z"/>
<path d="M2188 3153 c7 -3 16 -2 19 1 4 3 -2 6 -13 5 -11 0 -14 -3 -6 -6z"/>
<path d="M2148 3143 c7 -3 16 -2 19 1 4 3 -2 6 -13 5 -11 0 -14 -3 -6 -6z"/>
<path d="M2108 3133 c7 -3 16 -2 19 1 4 3 -2 6 -13 5 -11 0 -14 -3 -6 -6z"/>
<path d="M2058 3123 c7 -3 16 -2 19 1 4 3 -2 6 -13 5 -11 0 -14 -3 -6 -6z"/>
<path d="M2018 3113 c7 -3 16 -2 19 1 4 3 -2 6 -13 5 -11 0 -14 -3 -6 -6z"/>
<path d="M2413 3069 c-24 -15 -45 -46 -77 -114 -44 -91 -46 -94 -88 -105 -161
-44 -534 -153 -547 -160 -34 -20 19 -7 287 69 323 92 332 96 332 116 0 9 16
49 36 91 38 81 75 114 127 114 35 0 103 -34 116 -59 6 -11 26 -21 52 -25 61
-10 104 -57 113 -122 4 -27 11 -56 16 -64 16 -25 -2 73 -21 117 -19 45 -68 83
-106 83 -13 0 -32 9 -43 20 -62 62 -139 77 -197 39z"/>
<path d="M1131 3064 c0 -11 3 -14 6 -6 3 7 2 16 -1 19 -3 4 -6 -2 -5 -13z"/>
<path d="M1868 3073 c7 -3 16 -2 19 1 4 3 -2 6 -13 5 -11 0 -14 -3 -6 -6z"/>
<path d="M1828 3063 c7 -3 16 -2 19 1 4 3 -2 6 -13 5 -11 0 -14 -3 -6 -6z"/>
<path d="M1788 3053 c7 -3 16 -2 19 1 4 3 -2 6 -13 5 -11 0 -14 -3 -6 -6z"/>
<path d="M1748 3043 c7 -3 16 -2 19 1 4 3 -2 6 -13 5 -11 0 -14 -3 -6 -6z"/>
<path d="M1211 3024 c0 -12 6 -57 14 -100 8 -44 28 -169 44 -279 36 -241 51
-306 95 -421 18 -49 42 -125 51 -169 10 -44 20 -75 22 -69 6 18 -34 168 -71
264 -40 104 -47 137 -91 425 -38 253 -62 382 -64 349z"/>
<path d="M1708 3033 c7 -3 16 -2 19 1 4 3 -2 6 -13 5 -11 0 -14 -3 -6 -6z"/>
<path d="M1668 3023 c7 -3 16 -2 19 1 4 3 -2 6 -13 5 -11 0 -14 -3 -6 -6z"/>
<path d="M1141 3004 c0 -11 3 -14 6 -6 3 7 2 16 -1 19 -3 4 -6 -2 -5 -13z"/>
<path d="M1151 2944 c0 -11 3 -14 6 -6 3 7 2 16 -1 19 -3 4 -6 -2 -5 -13z"/>
<path d="M1202 2935 c0 -16 2 -22 5 -12 2 9 2 23 0 30 -3 6 -5 -1 -5 -18z"/>
<path d="M1162 2880 c0 -14 2 -19 5 -12 2 6 2 18 0 25 -3 6 -5 1 -5 -13z"/>
<path d="M1212 2855 c0 -16 2 -22 5 -12 2 9 2 23 0 30 -3 6 -5 -1 -5 -18z"/>
<path d="M1172 2810 c0 -14 2 -19 5 -12 2 6 2 18 0 25 -3 6 -5 1 -5 -13z"/>
<path d="M2790 2781 c0 -5 21 -27 47 -48 27 -21 54 -44 61 -50 19 -18 24 -16
11 5 -16 24 -119 104 -119 93z"/>
<path d="M3355 2775 c-5 -2 -104 -29 -219 -61 -200 -56 -210 -60 -228 -91 -13
-21 -30 -34 -51 -39 -18 -4 -27 -9 -20 -11 6 -2 70 14 142 37 72 22 190 59
261 82 72 22 129 42 127 44 -2 2 -102 -25 -223 -60 -120 -35 -221 -62 -224
-59 -13 12 46 35 232 88 112 31 207 61 213 66 9 9 7 10 -10 4z"/>
<path d="M1182 2740 c0 -14 2 -19 5 -12 2 6 2 18 0 25 -3 6 -5 1 -5 -13z"/>
<path d="M1350 2657 c0 -23 75 -478 90 -547 18 -79 70 -375 176 -990 73 -426
82 -471 100 -491 9 -10 22 -19 28 -19 7 0 7 3 1 8 -28 20 -38 53 -65 213 -79
467 -158 924 -211 1219 -23 124 -56 310 -74 413 -18 104 -36 191 -39 195 -3 3
-6 2 -6 -1z"/>
<path d="M1221 2614 c0 -11 3 -14 6 -6 3 7 2 16 -1 19 -3 4 -6 -2 -5 -13z"/>
<path d="M1231 2564 c0 -11 3 -14 6 -6 3 7 2 16 -1 19 -3 4 -6 -2 -5 -13z"/>
<path d="M1256 2445 c4 -8 8 -15 10 -15 2 0 4 7 4 15 0 8 -4 15 -10 15 -5 0
-7 -7 -4 -15z"/>
<path d="M1266 2405 c4 -8 8 -15 10 -15 2 0 4 7 4 15 0 8 -4 15 -10 15 -5 0
-7 -7 -4 -15z"/>
<path d="M3259 2396 c-50 -17 -457 -231 -549 -288 -14 -9 -85 10 -715 194 -81
24 -111 28 -160 23 -33 -3 -72 -7 -87 -7 -24 -1 -31 -18 -8 -18 16 0 320 -131
325 -141 3 -5 1 -18 -5 -30 -15 -27 -6 -35 23 -20 19 10 31 8 79 -14 46 -21
55 -29 51 -45 -6 -23 -3 -24 29 -9 19 8 34 6 71 -10 44 -19 47 -23 41 -47 -5
-20 -4 -25 5 -20 12 7 101 -23 101 -35 0 -3 -15 -13 -32 -22 -18 -9 -76 -41
-128 -72 -52 -30 -103 -55 -113 -55 -10 0 -91 31 -180 69 -208 89 -204 88
-263 57 -86 -44 -87 -35 12 -138 49 -52 104 -112 122 -135 l32 -41 -52 -11
c-29 -5 -93 -17 -143 -26 -126 -23 -131 -31 -24 -39 102 -8 189 -24 189 -35 0
-4 -18 -25 -40 -46 -62 -61 -53 -68 46 -36 32 11 60 19 61 17 10 -9 31 -192
23 -194 -6 -2 -10 -10 -10 -19 0 -17 20 -12 95 24 41 19 337 243 491 371 21
18 61 44 89 57 43 22 51 23 64 11 12 -12 12 -18 1 -31 -17 -21 -5 -31 17 -14
17 12 17 12 1 -6 -13 -14 -21 -16 -29 -8 -6 6 -18 9 -25 6 -12 -4 -12 -8 -2
-20 11 -13 7 -20 -22 -44 -18 -16 -32 -31 -29 -34 3 -2 23 1 45 7 21 6 47 10
56 9 9 -1 55 27 102 63 72 55 92 65 123 65 56 -1 83 6 143 36 88 45 110 65
110 101 0 38 -34 84 -61 84 -33 0 -80 -29 -141 -88 -32 -30 -60 -53 -63 -50
-3 3 32 45 76 94 45 49 90 106 99 126 13 30 43 55 155 129 78 52 170 123 211
164 101 99 99 124 -13 150 -81 20 -118 18 -194 -9z m151 -16 c0 -5 -10 -15
-22 -21 -21 -11 -22 -11 -10 4 11 13 10 15 -8 10 -11 -3 -23 -10 -26 -15 -13
-20 12 -26 51 -12 53 18 105 18 105 0 0 -24 -114 -120 -249 -210 -71 -47 -137
-89 -146 -92 -9 -4 -24 -23 -35 -43 -25 -48 -58 -78 -165 -147 -150 -96 -325
-170 -325 -137 0 5 94 66 209 137 215 131 241 150 225 166 -6 6 -41 -10 -94
-42 -261 -157 -349 -215 -389 -251 -49 -45 -196 -117 -351 -172 -58 -20 -139
-53 -180 -72 -162 -75 -177 -76 -69 -3 69 47 76 59 18 30 -43 -23 -67 -20 -93
9 -16 18 -14 19 41 33 44 11 91 37 189 105 72 50 196 129 275 176 133 79 145
84 159 68 8 -9 24 -15 35 -14 18 3 17 1 -4 -14 -84 -61 -82 -77 2 -32 36 19
65 28 77 24 25 -8 25 3 0 35 -13 17 -16 28 -8 37 7 9 16 6 34 -14 l25 -27 72
39 c88 47 158 92 175 114 8 10 11 29 7 54 -6 30 -4 37 9 37 9 0 16 7 16 15 0
19 -14 19 -30 0 -7 -9 -21 -13 -34 -9 -11 2 -30 -2 -41 -11 -49 -38 -272 -165
-291 -165 -3 0 -4 6 -1 14 7 17 -382 186 -660 286 -67 24 -77 43 -16 29 21 -4
166 -46 323 -93 157 -46 328 -96 380 -111 52 -15 98 -33 102 -39 5 -7 15 -3
30 11 13 12 112 71 221 132 239 134 268 149 332 172 54 20 135 25 135 9z
m-500 -297 c0 -18 -17 -16 -24 3 -8 22 4 40 15 23 5 -8 9 -20 9 -26z m-42 -18
c6 -14 8 -25 3 -25 -5 0 -43 -20 -84 -44 -72 -43 -97 -50 -114 -31 -4 4 -2 5
5 1 7 -4 12 -1 12 8 0 13 141 116 159 116 4 0 13 -11 19 -25z m-893 -234 c72
-32 145 -63 162 -70 l33 -13 -88 -55 c-136 -87 -152 -96 -152 -85 0 6 30 32
67 58 l66 47 -91 46 c-65 32 -95 42 -102 35 -8 -8 11 -23 65 -51 l76 -40 -47
-38 -47 -39 -26 35 c-14 18 -61 70 -103 115 l-78 80 43 22 c52 26 60 25 222
-47z m1172 -54 c-31 -25 -117 -69 -117 -59 0 4 15 16 33 27 45 26 91 65 77 65
-7 0 -39 -17 -71 -39 -32 -21 -60 -36 -63 -33 -15 15 -1 33 56 70 l63 41 22
-27 22 -27 -22 -18z m-247 -47 c0 -4 -39 -42 -87 -86 -91 -82 -96 -82 -28 1
22 28 51 67 64 89 23 36 25 37 38 20 7 -10 13 -21 13 -24z m-155 -39 c-3 -6
-11 -11 -17 -11 -6 0 -6 6 2 15 14 17 26 13 15 -4z m-206 -57 c-13 -15 -78
-67 -144 -117 -66 -50 -163 -125 -215 -165 -52 -41 -96 -70 -97 -65 -3 9 52
201 60 209 2 3 55 24 118 48 63 24 145 58 182 75 87 39 94 39 32 0 -62 -39
-197 -150 -191 -157 8 -7 169 103 222 153 55 50 70 58 33 19z m-439 -160 c0
-3 -11 -43 -25 -88 -23 -74 -61 -153 -70 -145 -7 8 -35 183 -29 188 6 7 106
50 117 51 4 0 7 -3 7 -6z"/>
<path d="M3223 2316 c-21 -24 -15 -46 12 -46 15 0 45 37 45 55 0 23 -34 18
-57 -9z"/>
<path d="M3140 2264 c0 -9 5 -14 12 -12 18 6 21 28 4 28 -9 0 -16 -7 -16 -16z"/>
<path d="M3310 2244 c-78 -46 -92 -55 -87 -61 7 -6 153 62 161 76 13 20 -27
12 -74 -15z"/>
<path d="M3093 2245 c-3 -9 -3 -19 1 -22 8 -9 37 18 30 28 -8 14 -24 11 -31
-6z"/>
<path d="M3041 2216 c-8 -10 -9 -16 -1 -21 13 -8 30 3 30 21 0 18 -14 18 -29
0z"/>
<path d="M2980 2175 c0 -8 7 -15 15 -15 8 0 15 7 15 15 0 8 -7 15 -15 15 -8 0
-15 -7 -15 -15z"/>
<path d="M2485 1874 c-20 -15 -20 -16 4 -12 14 2 26 9 29 16 5 16 -9 15 -33
-4z"/>
<path d="M2431 1841 c-7 -5 -10 -14 -6 -20 5 -9 10 -9 21 0 26 22 14 38 -15
20z"/>
<path d="M2381 1806 c-9 -10 -9 -16 -1 -21 17 -10 37 12 24 25 -8 8 -15 6 -23
-4z"/>
<path d="M2316 1775 c-23 -17 -13 -34 11 -19 19 12 29 34 16 34 -4 0 -17 -7
-27 -15z"/>
<path d="M2255 1740 c-11 -17 5 -32 21 -19 7 6 11 15 8 20 -7 12 -21 11 -29
-1z"/>
<path d="M2201 1711 c-8 -6 -11 -16 -7 -27 6 -16 8 -16 23 -1 20 19 6 41 -16
28z"/>
<path d="M2205 1633 c-126 -64 -129 -81 -5 -28 100 43 141 66 134 77 -8 12
-10 11 -129 -49z"/>
<path d="M1281 2364 c0 -11 3 -14 6 -6 3 7 2 16 -1 19 -3 4 -6 -2 -5 -13z"/>
<path d="M1241 2264 c0 -11 3 -14 6 -6 3 7 2 16 -1 19 -3 4 -6 -2 -5 -13z"/>
<path d="M1251 2194 c0 -11 3 -14 6 -6 3 7 2 16 -1 19 -3 4 -6 -2 -5 -13z"/>
<path d="M1261 2114 c0 -11 3 -14 6 -6 3 7 2 16 -1 19 -3 4 -6 -2 -5 -13z"/>
<path d="M1361 1734 c0 -11 3 -14 6 -6 3 7 2 16 -1 19 -3 4 -6 -2 -5 -13z"/>
<path d="M1371 1684 c0 -11 3 -14 6 -6 3 7 2 16 -1 19 -3 4 -6 -2 -5 -13z"/>
<path d="M1381 1644 c0 -11 3 -14 6 -6 3 7 2 16 -1 19 -3 4 -6 -2 -5 -13z"/>
<path d="M1331 1584 c0 -11 3 -14 6 -6 3 7 2 16 -1 19 -3 4 -6 -2 -5 -13z"/>
<path d="M1342 1510 c0 -14 2 -19 5 -12 2 6 2 18 0 25 -3 6 -5 1 -5 -13z"/>
<path d="M1352 1440 c0 -14 2 -19 5 -12 2 6 2 18 0 25 -3 6 -5 1 -5 -13z"/>
<path d="M1411 984 c0 -11 3 -14 6 -6 3 7 2 16 -1 19 -3 4 -6 -2 -5 -13z"/>
<path d="M1421 924 c0 -11 3 -14 6 -6 3 7 2 16 -1 19 -3 4 -6 -2 -5 -13z"/>
<path d="M1431 864 c0 -11 3 -14 6 -6 3 7 2 16 -1 19 -3 4 -6 -2 -5 -13z"/>
<path d="M1451 724 c0 -11 3 -14 6 -6 3 7 2 16 -1 19 -3 4 -6 -2 -5 -13z"/>
<path d="M1462 660 c0 -14 2 -19 5 -12 2 6 2 18 0 25 -3 6 -5 1 -5 -13z"/>
<path d="M1471 594 c0 -11 3 -14 6 -6 3 7 2 16 -1 19 -3 4 -6 -2 -5 -13z"/>
</g>
</svg>