<svg id="visual" viewBox="0 0 900 600" width="900" height="600" xmlns="http://www.w3.org/2000/svg" xmlns:xlink="http://www.w3.org/1999/xlink" version="1.1"><rect x="0" y="0" width="900" height="600" fill="#9bc4e3"></rect><path d="M0 427L21.5 424.5C43 422 86 417 128.8 409.5C171.7 402 214.3 392 257.2 393.2C300 394.3 343 406.7 385.8 402.5C428.7 398.3 471.3 377.7 514.2 369C557 360.3 600 363.7 642.8 364.8C685.7 366 728.3 365 771.2 372C814 379 857 394 878.5 401.5L900 409L900 601L878.5 601C857 601 814 601 771.2 601C728.3 601 685.7 601 642.8 601C600 601 557 601 514.2 601C471.3 601 428.7 601 385.8 601C343 601 300 601 257.2 601C214.3 601 171.7 601 128.8 601C86 601 43 601 21.5 601L0 601Z" fill="#6990fa"></path><path d="M0 438L21.5 435.8C43 433.7 86 429.3 128.8 434.7C171.7 440 214.3 455 257.2 458.2C300 461.3 343 452.7 385.8 453.3C428.7 454 471.3 464 514.2 466.3C557 468.7 600 463.3 642.8 461.3C685.7 459.3 728.3 460.7 771.2 462.5C814 464.3 857 466.7 878.5 467.8L900 469L900 601L878.5 601C857 601 814 601 771.2 601C728.3 601 685.7 601 642.8 601C600 601 557 601 514.2 601C471.3 601 428.7 601 385.8 601C343 601 300 601 257.2 601C214.3 601 171.7 601 128.8 601C86 601 43 601 21.5 601L0 601Z" fill="#2daaff"></path><path d="M0 495L21.5 495.2C43 495.3 86 495.7 128.8 489.2C171.7 482.7 214.3 469.3 257.2 461.8C300 454.3 343 452.7 385.8 460.7C428.7 468.7 471.3 486.3 514.2 487C557 487.7 600 471.3 642.8 471.2C685.7 471 728.3 487 771.2 489.8C814 492.7 857 482.3 878.5 477.2L900 472L900 601L878.5 601C857 601 814 601 771.2 601C728.3 601 685.7 601 642.8 601C600 601 557 601 514.2 601C471.3 601 428.7 601 385.8 601C343 601 300 601 257.2 601C214.3 601 171.7 601 128.8 601C86 601 43 601 21.5 601L0 601Z" fill="#00bffc"></path><path d="M0 502L21.5 501.5C43 501 86 500 128.8 501.7C171.7 503.3 214.3 507.7 257.2 511.8C300 516 343 520 385.8 519.2C428.7 518.3 471.3 512.7 514.2 506.8C557 501 600 495 642.8 496.8C685.7 498.7 728.3 508.3 771.2 509.8C814 511.3 857 504.7 878.5 501.3L900 498L900 601L878.5 601C857 601 814 601 771.2 601C728.3 601 685.7 601 642.8 601C600 601 557 601 514.2 601C471.3 601 428.7 601 385.8 601C343 601 300 601 257.2 601C214.3 601 171.7 601 128.8 601C86 601 43 601 21.5 601L0 601Z" fill="#00d0ec"></path><path d="M0 560L21.5 554.3C43 548.7 86 537.3 128.8 538C171.7 538.7 214.3 551.3 257.2 554.8C300 558.3 343 552.7 385.8 546.5C428.7 540.3 471.3 533.7 514.2 530.8C557 528 600 529 642.8 529.8C685.7 530.7 728.3 531.3 771.2 533C814 534.7 857 537.3 878.5 538.7L900 540L900 601L878.5 601C857 601 814 601 771.2 601C728.3 601 685.7 601 642.8 601C600 601 557 601 514.2 601C471.3 601 428.7 601 385.8 601C343 601 300 601 257.2 601C214.3 601 171.7 601 128.8 601C86 601 43 601 21.5 601L0 601Z" fill="#2addcd"></path></svg>